<svg width="38" height="38" viewBox="0 0 38 38" fill="none" xmlns="http://www.w3.org/2000/svg">
<path d="M34.3365 19.4165L25.3987 16.2021L21.6524 11.5077C21.3273 11.1104 20.918 10.7902 20.4541 10.5703C19.9902 10.3504 19.4833 10.2361 18.9699 10.2358H9.71992C9.15565 10.2388 8.6006 10.3793 8.10293 10.6453C7.60525 10.9112 7.17998 11.2946 6.86398 11.7621L3.73055 16.3871C3.08144 17.3382 2.73117 18.4615 2.72461 19.613V28.7358C2.72461 29.0425 2.84643 29.3366 3.06327 29.5534C3.28011 29.7703 3.5742 29.8921 3.88086 29.8921H6.35523C6.6215 30.8719 7.20277 31.7368 8.00936 32.3534C8.81596 32.9701 9.80305 33.3042 10.8184 33.3042C11.8337 33.3042 12.8208 32.9701 13.6274 32.3534C14.434 31.7368 15.0152 30.8719 15.2815 29.8921H22.5427C22.809 30.8719 23.3903 31.7368 24.1969 32.3534C25.0035 32.9701 25.9906 33.3042 27.0059 33.3042C28.0212 33.3042 29.0083 32.9701 29.8149 32.3534C30.6215 31.7368 31.2027 30.8719 31.469 29.8921H33.9434C34.25 29.8921 34.5441 29.7703 34.761 29.5534C34.9778 29.3366 35.0996 29.0425 35.0996 28.7358V20.5033C35.0995 20.2657 35.0262 20.0339 34.8896 19.8394C34.7531 19.6449 34.56 19.4973 34.3365 19.4165ZM10.8184 31.0483C10.361 31.0483 9.91389 30.9127 9.5336 30.6586C9.15331 30.4045 8.85692 30.0434 8.68189 29.6208C8.50686 29.1982 8.46106 28.7333 8.55029 28.2847C8.63952 27.8361 8.85977 27.4241 9.18317 27.1007C9.50658 26.7772 9.91863 26.557 10.3672 26.4678C10.8158 26.3785 11.2808 26.4243 11.7033 26.5994C12.1259 26.7744 12.487 27.0708 12.7411 27.4511C12.9952 27.8314 13.1309 28.2785 13.1309 28.7358C13.1309 29.3492 12.8872 29.9373 12.4535 30.371C12.0199 30.8047 11.4317 31.0483 10.8184 31.0483ZM27.0059 31.0483C26.5485 31.0483 26.1014 30.9127 25.7211 30.6586C25.3408 30.4045 25.0444 30.0434 24.8694 29.6208C24.6944 29.1982 24.6486 28.7333 24.7378 28.2847C24.827 27.8361 25.0473 27.4241 25.3707 27.1007C25.6941 26.7772 26.1061 26.557 26.5547 26.4678C27.0033 26.3785 27.4683 26.4243 27.8908 26.5994C28.3134 26.7744 28.6745 27.0708 28.9286 27.4511C29.1827 27.8314 29.3184 28.2785 29.3184 28.7358C29.3184 29.3492 29.0747 29.9373 28.641 30.371C28.2074 30.8047 27.6192 31.0483 27.0059 31.0483ZM32.7871 27.5796H31.469C31.2027 26.5998 30.6215 25.7349 29.8149 25.1182C29.0083 24.5016 28.0212 24.1675 27.0059 24.1675C25.9906 24.1675 25.0035 24.5016 24.1969 25.1182C23.3903 25.7349 22.809 26.5998 22.5427 27.5796H15.2815C15.0152 26.5998 14.434 25.7349 13.6274 25.1182C12.8208 24.5016 11.8337 24.1675 10.8184 24.1675C9.80305 24.1675 8.81596 24.5016 8.00936 25.1182C7.20277 25.7349 6.6215 26.5998 6.35523 27.5796H5.03711V19.613C5.03666 18.9161 5.24618 18.2351 5.63836 17.659L8.7718 13.034C8.88045 12.8813 9.02456 12.7574 9.19174 12.6728C9.35891 12.5882 9.54414 12.5455 9.73148 12.5483H18.9815C19.1514 12.5481 19.3192 12.5852 19.4731 12.6572C19.6269 12.7291 19.7631 12.8341 19.8718 12.9646L23.803 17.9018C23.9386 18.0661 24.1137 18.1934 24.3118 18.2718L32.7871 21.3127V27.5796Z" fill="#3468C0"/>
</svg>
