<svg width="40" height="37" viewBox="0 0 40 37" fill="none" xmlns="http://www.w3.org/2000/svg">
<path d="M13.7962 10.4354C13.6076 9.00419 12.8261 8.06885 11.5291 8.06885C10.3386 8.06885 9.16843 8.61139 8.6172 10.8171C8.6172 10.8171 7.00784 15.9878 7.00784 17.8104C7.02786 18.6601 7.20575 19.4987 7.53246 20.2833L11.7918 34.4586C11.8677 34.7956 12.0503 35.0992 12.3124 35.3242C12.5745 35.5492 12.9022 35.6836 13.2468 35.7076C13.3993 35.6973 13.5481 35.6566 13.6846 35.5879C13.8211 35.5191 13.9424 35.4237 14.0413 35.3073C14.1403 35.1908 14.2149 35.0558 14.2608 34.91C14.3067 34.7642 14.3228 34.6108 14.3084 34.4586L12.1475 18.66" stroke="#3468C0" stroke-width="2" stroke-linecap="round" stroke-linejoin="round"/>
<path d="M19.5724 16.33H14.9951C14.61 16.3601 14.226 16.2593 13.9052 16.044C13.5845 15.8287 13.3458 15.5114 13.2279 15.1435L11.3234 10.7225" stroke="#3468C0" stroke-width="2" stroke-linecap="round" stroke-linejoin="round"/>
<path d="M7.64344 26.6251L6.80787 29.2175C6.80787 29.2175 4.38413 33.7734 3.99153 34.398C3.79129 34.7714 3.45092 35.05 3.04528 35.1726C2.63965 35.2951 2.20195 35.2515 1.82844 35.0514C1.22691 34.6524 1.3161 33.6022 1.84819 32.6441C2.19158 32.0258 4.62747 26.4041 4.62747 26.4041L5.90281 21.4956" stroke="#3468C0" stroke-width="2" stroke-linecap="round" stroke-linejoin="round"/>
<path d="M34.9043 25.7802L35.583 31.8696C35.748 32.9725 36.2786 33.4503 37.053 33.4503C37.8695 33.4503 38.4123 32.6512 38.4123 31.4503C38.4123 31.4503 38.0375 24.5387 37.9091 22.8821C37.7807 21.2254 36.3247 20.2124 34.0311 20.2124" stroke="#3468C0" stroke-width="2" stroke-linecap="round" stroke-linejoin="round"/>
<path d="M18.0316 22.139C16.8078 23.6506 16.153 25.5437 16.1814 27.4885C16.2097 29.4332 16.9194 31.3064 18.1867 32.7818C19.4541 34.2571 21.1988 35.2412 23.117 35.5625C25.0353 35.8838 27.0054 35.5221 28.6844 34.5402C30.3633 33.5584 31.6447 32.0188 32.3052 30.1894C32.9658 28.3601 32.9637 26.357 32.2994 24.529C31.635 22.701 30.3504 21.164 28.6694 20.1857C26.9884 19.2074 25.0175 18.8497 23.1 19.1751" stroke="#3468C0" stroke-width="2" stroke-linecap="round" stroke-linejoin="round"/>
<path d="M20.7471 27.342C20.7375 28.0835 20.9481 28.8113 21.3521 29.4332C21.7561 30.0551 22.3354 30.5432 23.0169 30.8358C23.6983 31.1285 24.4512 31.2124 25.1803 31.0772C25.9095 30.9419 26.5822 30.5935 27.1133 30.0759C27.6444 29.5583 28.0101 28.8949 28.1642 28.1694C28.3182 27.444 28.2537 26.6892 27.9788 26.0004C27.7039 25.3117 27.2309 24.7199 26.6196 24.3C26.0084 23.88 25.2863 23.6508 24.5448 23.6412" stroke="#3468C0" stroke-width="2" stroke-linecap="round" stroke-linejoin="round"/>
<path d="M19.5401 18.3545V21.6353C19.5401 22.6653 20.0326 23.1086 20.683 23.1086C21.3582 23.1086 21.7776 22.4743 21.7776 21.5693V21.1157" stroke="#3468C0" stroke-width="2" stroke-linecap="round" stroke-linejoin="round"/>
<path d="M23.2554 16.9306H24.3404C26.1164 16.9163 27.8609 17.3991 29.3769 18.3243L28.9719 15.4464L28.567 12.7936C28.5275 12.3521 28.3428 11.9361 28.0418 11.6106C27.7408 11.2852 27.3405 11.0687 26.9034 10.9949L24.0446 10.6351C22.9207 10.5003 22.159 10.6691 21.8413 11.3096L20.1886 14.3626" stroke="#3468C0" stroke-width="2" stroke-linecap="round" stroke-linejoin="round"/>
<path d="M13.9656 6.07457C15.2939 6.07457 16.3707 4.99775 16.3707 3.66943C16.3707 2.3411 15.2939 1.26428 13.9656 1.26428C12.6372 1.26428 11.5604 2.3411 11.5604 3.66943C11.5604 4.99775 12.6372 6.07457 13.9656 6.07457Z" stroke="#3468C0" stroke-width="2" stroke-linecap="round" stroke-linejoin="round"/>
<path d="M25.9414 8.53819C27.2697 8.53819 28.3465 7.46137 28.3465 6.13305C28.3465 4.80473 27.2697 3.72791 25.9414 3.72791C24.613 3.72791 23.5362 4.80473 23.5362 6.13305C23.5362 7.46137 24.613 8.53819 25.9414 8.53819Z" stroke="#3468C0" stroke-width="2" stroke-linecap="round" stroke-linejoin="round"/>
</svg>
