<svg width="40" height="35" viewBox="0 0 40 35" fill="none" xmlns="http://www.w3.org/2000/svg">
<path d="M16.2984 9.60974V10.0632C16.2984 14.0792 13.6221 17.3826 10.3282 17.3826C7.03431 17.3826 4.35803 14.0791 4.35803 10.0632C4.35803 9.93363 4.35803 9.80409 4.35803 9.60974" stroke="#3468C0" stroke-width="1.47609" stroke-miterlimit="10"/>
<path d="M3.18528 6.66629C3.58334 1.21786 7.96223 1.15524 10.1517 1.46835C10.3507 1.53097 10.9479 1.46835 11.1469 1.46835C15.1278 0.96737 17.1181 5.2259 17.1181 7.10465C17.1181 7.79356 17.2864 9.47535 16.2912 10.4148C16.2912 10.4148 13.8671 7.79356 13.7344 6.29049C13.7344 6.29049 6.17081 8.98339 5.64007 6.66622C5.64007 6.66622 5.10932 8.54496 4.64484 9.04601C4.64484 9.04601 4.39947 10.4864 4.39947 10.9248C4.39961 10.9249 2.98625 9.04608 3.18528 6.66629Z" stroke="#3468C0" stroke-width="1.47609" stroke-linecap="round" stroke-linejoin="round"/>
<path d="M20.1972 17.4831C18.6746 14.9006 20.1454 12.9933 21.0234 10.8622C21.8196 8.85818 20.8907 7.7936 21.6869 5.16332C22.4167 2.59566 25.336 0.967407 28.5206 0.967407C31.2408 0.967407 32.5014 2.40779 32.5014 2.40779C34.5582 2.59566 36.1505 4.22391 36.2169 6.16535C36.4159 9.54717 36.7476 9.54717 37.9419 12.1775C38.7345 13.9616 38.5186 15.9573 37.3455 17.484" stroke="#3468C0" stroke-width="1.47609" stroke-linecap="round" stroke-linejoin="round"/>
<path d="M23.4781 10.4864C23.4781 14.244 25.9993 17.0621 28.985 17.0621C31.9706 17.0621 34.4918 14.244 34.4918 10.4864C34.4918 8.1066 33.4965 6.72884 31.5062 4.8501C29.5158 6.72884 23.5445 9.10863 23.5445 10.048L23.4781 10.4864Z" stroke="#3468C0" stroke-width="1.47609" stroke-miterlimit="10" stroke-linejoin="round"/>
<path d="M1 33.8634V23.2656C1 20.9484 3.45657 19.0697 5.91314 19.0697C6.31688 19.3899 6.72061 19.6659 7.12449 19.8977" stroke="#3468C0" stroke-width="1.47609" stroke-linecap="round" stroke-linejoin="round"/>
<path d="M32.0786 19.9459C32.5178 19.7046 32.9583 19.4125 33.4003 19.0697C35.8568 19.0697 38.3134 20.9484 38.3134 23.2656V33.8635" stroke="#3468C0" stroke-width="1.47609" stroke-linecap="round" stroke-linejoin="round"/>
<path d="M28.052 10.2656C28.052 10.7688 27.6522 11.1462 27.1192 11.1462C26.5861 11.1462 26.1863 10.7688 26.1863 10.2656C26.1863 9.76249 26.5861 9.38513 27.1192 9.38513C27.6522 9.38513 28.052 9.76249 28.052 10.2656Z" fill="#3468C0"/>
<path d="M31.7834 10.2656C31.7834 10.7688 31.3836 11.1462 30.8506 11.1462C30.3175 11.1462 29.9177 10.7688 29.9177 10.2656C29.9177 9.76249 30.3175 9.38513 30.8506 9.38513C31.3836 9.38513 31.7834 9.76249 31.7834 10.2656Z" fill="#3468C0"/>
<path d="M27.5916 13.811C28.4542 14.2494 29.5156 14.2494 30.3782 13.811" stroke="#3468C0" stroke-width="1.47609" stroke-linecap="round" stroke-linejoin="round"/>
<path d="M9.39528 10.2656C9.39528 10.7688 8.9955 11.1462 8.46244 11.1462C7.92938 11.1462 7.5296 10.7688 7.5296 10.2656C7.5296 9.76249 7.92938 9.38513 8.46244 9.38513C8.9955 9.38513 9.39528 9.76249 9.39528 10.2656Z" fill="#3468C0"/>
<path d="M13.1267 10.2656C13.1267 10.7688 12.7269 11.1462 12.1938 11.1462C11.6608 11.1462 11.261 10.7688 11.261 10.2656C11.261 9.76249 11.6608 9.38513 12.1938 9.38513C12.7269 9.38513 13.1267 9.76249 13.1267 10.2656Z" fill="#3468C0"/>
<path d="M8.93481 13.811C9.79735 14.2494 10.8588 14.2494 11.7214 13.811" stroke="#3468C0" stroke-width="1.47609" stroke-linecap="round" stroke-linejoin="round"/>
<path d="M28.6849 23.7914C28.7098 24.1406 28.4299 24.4428 28.0598 24.4662C27.6897 24.4897 27.3695 24.2255 27.3447 23.8763C27.3198 23.527 27.5997 23.2249 27.9698 23.2014C27.9848 23.2005 27.9998 23.2 28.0149 23.2C28.3728 23.1891 28.6726 23.4537 28.6849 23.7914Z" fill="#3468C0"/>
<path d="M25.749 26.2457C26.3273 26.6983 27.165 26.6983 27.7433 26.2457" stroke="#3468C0" stroke-width="1.18088" stroke-linecap="round" stroke-linejoin="round"/>
<path d="M30.8833 25.6973C30.2759 27.6884 28.6443 28.8121 26.7459 28.8121C24.8475 28.8121 23.2163 27.6884 22.6089 25.6973" stroke="#3468C0" stroke-width="1.18088" stroke-miterlimit="10"/>
<path d="M25.4773 23.2C25.4923 23.2 25.5074 23.2005 25.5224 23.2014C25.8925 23.2249 26.1724 23.527 26.1475 23.8763C26.1227 24.2255 25.8025 24.4896 25.4325 24.4662C25.0624 24.4428 24.7825 24.1406 24.8073 23.7914C24.8196 23.4537 25.1194 23.1891 25.4773 23.2Z" fill="#3468C0"/>
<path d="M5.47742 34.0043V32.7834C5.47742 31.0458 7.34444 29.637 9.21145 29.637C11.4317 31.3745 13.6519 31.3745 15.9226 29.637C17.7895 29.637 19.6566 31.0458 19.6566 32.7834V34.0043" stroke="#3468C0" stroke-width="1.18088" stroke-linecap="round" stroke-linejoin="round"/>
<path d="M19.6567 34.0043V32.7834C19.6567 31.0458 21.5238 29.637 23.3908 29.637C25.611 31.3745 27.8312 31.3745 30.1019 29.637C31.9689 29.637 33.8359 31.0458 33.8359 32.7834V34.0043" stroke="#3468C0" stroke-width="1.18088" stroke-linecap="round" stroke-linejoin="round"/>
<path d="M14.6551 23.7914C14.6799 24.1406 14.4001 24.4428 14.0299 24.4662C13.6598 24.4897 13.3397 24.2255 13.3148 23.8763C13.29 23.527 13.5698 23.2249 13.94 23.2014C13.955 23.2005 13.97 23.2 13.9851 23.2C14.343 23.1891 14.6427 23.4537 14.6551 23.7914Z" fill="#3468C0"/>
<path d="M11.5698 26.2457C12.1481 26.6983 12.9858 26.6983 13.5641 26.2457" stroke="#3468C0" stroke-width="1.18088" stroke-linecap="round" stroke-linejoin="round"/>
<path d="M11.1489 23.2C11.1639 23.2 11.179 23.2005 11.194 23.2014C11.564 23.2249 11.844 23.527 11.8191 23.8763C11.7943 24.2255 11.4741 24.4896 11.104 24.4662C10.734 24.4428 10.454 24.1406 10.4789 23.7914C10.4912 23.4537 10.791 23.1891 11.1489 23.2Z" fill="#3468C0"/>
<path d="M26.7463 20.2709C29.6299 21.2361 30.9008 24.3756 30.9958 27.0549C32.0574 27.2718 33.147 26.7803 33.8359 26.0257C33.1012 25.4385 32.5471 24.6756 32.2318 23.817C32.7818 19.7841 30.7169 17.0692 26.7463 17.8392C22.7757 17.0692 20.7108 19.7841 21.2608 23.817C20.9455 24.6756 20.3914 25.4385 19.6567 26.0257C20.3455 26.7803 21.4353 27.2718 22.4968 27.0549C22.5918 24.3757 23.8626 21.2361 26.7463 20.2709Z" stroke="#3468C0" stroke-width="1.18088" stroke-linecap="round" stroke-linejoin="round"/>
<path d="M17.4545 23.4862C17.4603 23.5855 17.4633 23.6856 17.4633 23.7864C17.5706 26.4146 15.4051 28.6294 12.6211 28.7391C9.83704 28.6294 7.67166 26.4146 7.7789 23.7864C7.7789 23.7193 7.78017 23.6526 7.78278 23.5862" stroke="#3468C0" stroke-width="1.18088" stroke-miterlimit="10"/>
<path d="M10.8025 21.3754C11.1528 23.7444 14.151 20.7621 14.151 20.7621C14.5608 21.8707 17.4535 23.4864 17.4535 23.4864C18.224 22.8132 17.846 21.477 17.7312 21.0114C17.3502 19.1005 15.4331 17.8186 13.3969 18.1131C13.1405 18.1326 12.8829 18.1326 12.6265 18.1131C10.9318 17.8758 8.12648 18.0087 7.31305 21.3839C6.91626 23.031 7.77872 23.4862 7.77872 23.4862C7.77872 23.4862 10.5877 19.9227 10.8025 21.3754Z" stroke="#3468C0" stroke-width="1.18088" stroke-linecap="round" stroke-linejoin="round"/>
</svg>
