<svg width="38" height="17" viewBox="0 0 38 17" fill="none" xmlns="http://www.w3.org/2000/svg">
<path fill-rule="evenodd" clip-rule="evenodd" d="M7.60565 13.8823V14.136C7.60565 15.271 6.68549 16.1913 5.55035 16.1913H2.46741C1.3323 16.1913 0.412109 15.271 0.412109 14.136V2.83655C0.412109 1.70151 1.3323 0.781249 2.46741 0.781249H5.55035C6.52251 0.781249 7.33702 1.45621 7.55088 2.36311C8.91189 1.87261 10.5016 1.2888 10.988 1.06704C11.4011 0.878874 11.8781 0.814955 12.2745 0.792039C12.6913 0.767992 13.1237 0.784639 13.5021 0.813927C13.8838 0.843421 14.2302 0.887507 14.4803 0.923886C14.6059 0.942178 14.7087 0.958723 14.7811 0.970849C14.8174 0.977015 14.8462 0.981949 14.8665 0.985648L14.8907 0.989964L14.8977 0.991299L14.9014 0.991916L14.9198 0.995411L21.7936 2.5374L21.8365 2.55117L21.8482 2.55476L21.8956 2.56925C21.9389 2.58231 22.0046 2.60152 22.0892 2.62495C22.2589 2.67202 22.5029 2.73543 22.7937 2.79883C23.3845 2.9277 24.1287 3.04803 24.8227 3.04803C25.4638 3.04803 26.1271 3.28696 26.4816 3.93634C26.7861 4.49383 26.7152 5.106 26.6012 5.52991C26.4593 6.0575 26.1654 6.61274 25.7917 7.08443C26.296 6.89422 26.8472 6.66896 27.439 6.42623L27.5655 6.37423C29.2333 5.68981 31.2111 4.87817 32.9555 4.58971C34.9488 4.25994 36.3997 4.98351 37.0573 6.26725C37.6428 7.40989 37.5068 8.90964 36.6257 9.81325C36.4046 10.0401 36.0676 10.278 35.7292 10.4975C35.3679 10.7318 34.9228 10.9966 34.4283 11.277C33.4379 11.8389 32.2118 12.4846 30.9808 13.1089C28.5432 14.3452 25.988 15.5474 25.1761 15.8447C24.2352 16.1894 23.2245 16.222 22.2525 16.1719C21.7231 16.1447 21.108 16.0836 20.4967 16.0227C20.055 15.9788 19.6154 15.9351 19.2114 15.9045C17.2303 15.7544 15.7098 15.2709 14.3092 14.8255L14.1389 14.7713C12.6924 14.3122 11.3467 13.9049 9.56373 13.8331C9.15606 13.8167 8.34206 13.8466 7.60565 13.8823ZM11.8404 2.93725C11.9063 2.90725 12.081 2.86203 12.393 2.84395C12.6844 2.82709 13.0169 2.83778 13.3435 2.86306C13.6668 2.88813 13.9657 2.92595 14.1845 2.95771C14.2932 2.97353 14.3808 2.98771 14.4401 2.99768C14.4698 3.00272 14.4922 3.00662 14.5067 3.00919L14.509 3.0096L21.2581 4.52364L21.3044 4.53771C21.3605 4.55457 21.4404 4.5779 21.5403 4.60564C21.7397 4.66093 22.0212 4.73389 22.3556 4.80686C22.957 4.93809 23.7627 5.07651 24.5839 5.09994C24.5254 5.26611 24.4262 5.46229 24.2918 5.65765C24.1278 5.89606 23.9476 6.08042 23.7997 6.18596C23.3716 6.49179 23.0261 6.61973 22.8164 6.6742C22.7102 6.70174 22.6355 6.71129 22.5986 6.71458L22.585 6.71571L22.577 6.71613L17.0667 6.64953L16.87 8.68808L17.0543 7.67708L16.871 8.68828L16.9257 8.69815L17.0824 8.72631C17.2181 8.75066 17.4134 8.7854 17.6536 8.82743C18.1335 8.91149 18.7927 9.02474 19.5095 9.14148C20.9219 9.37167 22.6243 9.62674 23.5902 9.685C24.2573 9.72529 25.0342 9.52058 25.7567 9.27929C26.5107 9.02761 27.3624 8.67914 28.2189 8.32768C29.9837 7.60381 31.7807 6.86719 33.2909 6.61747C34.5964 6.40146 35.0611 6.87839 35.2281 7.20436C35.4674 7.67143 35.3373 8.19059 35.1542 8.37834C35.1093 8.42438 34.9475 8.55469 34.6108 8.77307C34.2971 8.97654 33.8908 9.21906 33.4143 9.48934C32.4626 10.0291 31.2678 10.6588 30.0511 11.2759C27.5935 12.5223 25.1472 13.6665 24.4693 13.9148C23.9203 14.1159 23.2418 14.1648 22.3583 14.1193C21.8363 14.0925 21.3412 14.0421 20.8014 13.9871C20.365 13.9428 19.8994 13.8955 19.3667 13.8551C17.6281 13.7234 16.3063 13.3035 14.8899 12.8534L14.7609 12.8124C13.2938 12.3467 11.724 11.8631 9.64646 11.7795C9.17877 11.7606 8.34617 11.7895 7.60565 11.8246V4.52734C9.05001 4.01043 11.1892 3.23414 11.8404 2.93725ZM14.7131 2.0022L14.9014 0.991916C14.9016 0.992019 14.9014 0.991917 14.7131 2.0022ZM5.55035 2.83655H2.46741V14.136H5.55035V2.83655Z" fill="#3468C0"/>
</svg>
