<svg width="48" height="33" viewBox="0 0 48 33" fill="none" xmlns="http://www.w3.org/2000/svg">
<path d="M32.4466 10.0666L35.7326 6.96313L46.4121 16.3492V31.0149H26.2397V21.354" stroke="#3468C0" stroke-width="2" stroke-miterlimit="10" stroke-linecap="round" stroke-linejoin="round"/>
<path d="M30.119 21.7045H34.7742V31.0148H30.119V21.7045Z" stroke="#3468C0" stroke-width="2" stroke-miterlimit="10" stroke-linecap="round" stroke-linejoin="round"/>
<path d="M38.6535 21.7045H43.3087V25.5838H38.6535V21.7045Z" stroke="#3468C0" stroke-width="2" stroke-miterlimit="10" stroke-linecap="round" stroke-linejoin="round"/>
<path d="M30.5069 6.96313H32.8345V9.29072" stroke="#3468C0" stroke-width="2" stroke-miterlimit="10" stroke-linecap="round" stroke-linejoin="round"/>
<path d="M14.2138 31.0148V25.4495L10.3345 21.7045" stroke="#3468C0" stroke-width="2" stroke-linecap="round" stroke-linejoin="round"/>
<path d="M14.6334 25.3716L16.8401 23.0745" stroke="#3468C0" stroke-width="2" stroke-linecap="round" stroke-linejoin="round"/>
<path d="M28.5719 11.1056C28.5719 8.53575 25.8992 6.44853 22.6026 6.44853C22.3273 6.45078 22.0521 6.46793 21.7785 6.49989C20.3823 3.81906 17.351 1.95691 13.826 1.95691C8.97855 1.95691 5.04927 5.47048 5.04927 9.80429C5.0502 10.0907 5.06844 10.3769 5.10389 10.6611C2.93714 11.3595 1.41211 13.0227 1.41211 14.965C1.41211 17.5349 4.08464 19.6221 7.38128 19.6221C8.63438 19.6329 9.86839 19.3101 10.9609 18.6857C12.3712 19.8313 14.6279 20.5776 17.1797 20.5776C21.4551 20.5776 24.921 18.4925 24.921 15.9205C24.9203 15.7505 24.9044 15.5809 24.8735 15.4138C27.0433 14.7143 28.5719 13.05 28.5719 11.1056Z" stroke="#3468C0" stroke-width="2" stroke-miterlimit="10" stroke-linecap="round"/>
<path d="M46.0242 17.0493H29.7311" stroke="#3468C0" stroke-width="2" stroke-miterlimit="10" stroke-linecap="round" stroke-linejoin="round"/>
</svg>
