<svg width="38" height="38" viewBox="0 0 38 38" fill="none" xmlns="http://www.w3.org/2000/svg">
<path d="M11.3965 18.3296C11.7395 18.3296 12.0748 18.4313 12.3601 18.6219C12.6453 18.8125 12.8676 19.0833 12.9988 19.4002C13.1301 19.7172 13.1645 20.0659 13.0975 20.4023C13.0306 20.7388 12.8654 21.0478 12.6229 21.2904C12.3803 21.5329 12.0713 21.6981 11.7348 21.765C11.3984 21.8319 11.0497 21.7976 10.7328 21.6663C10.4159 21.535 10.145 21.3127 9.95441 21.0275C9.76383 20.7423 9.66211 20.407 9.66211 20.064C9.66211 19.604 9.84484 19.1628 10.1701 18.8376C10.4954 18.5123 10.9365 18.3296 11.3965 18.3296ZM11.3965 16.0171C10.5961 16.0171 9.81367 16.2544 9.14816 16.6991C8.48266 17.1438 7.96396 17.7758 7.65766 18.5153C7.35136 19.2548 7.27122 20.0685 7.42737 20.8535C7.58352 21.6385 7.96895 22.3596 8.53491 22.9255C9.10088 23.4915 9.82196 23.8769 10.607 24.0331C11.392 24.1892 12.2057 24.1091 12.9452 23.8028C13.6846 23.4965 14.3167 22.9778 14.7613 22.3123C15.206 21.6468 15.4434 20.8644 15.4434 20.064C15.4434 18.9907 15.017 17.9613 14.2581 17.2024C13.4991 16.4435 12.4698 16.0171 11.3965 16.0171Z" fill="#3468C0"/>
<path d="M29.3184 17.1733H20.0684C19.455 17.1733 18.8669 17.4169 18.4332 17.8506C17.9995 18.2843 17.7559 18.8725 17.7559 19.4858V26.4233H5.03711V13.2421L18.9121 5.77268L33.3999 13.5658L34.4868 11.5308L19.4555 3.43706C19.2883 3.34798 19.1016 3.30139 18.9121 3.30139C18.7226 3.30139 18.536 3.34798 18.3687 3.43706L3.33742 11.5308C3.15279 11.6291 2.99829 11.7757 2.89037 11.9549C2.78246 12.134 2.72517 12.3391 2.72461 12.5483V35.6733H5.03711V28.7358H32.7871V35.6733H35.0996V22.9546C35.0996 21.4213 34.4905 19.9508 33.4063 18.8666C32.3221 17.7824 30.8516 17.1733 29.3184 17.1733ZM20.0684 26.4233V19.4858H29.3184C30.2383 19.4858 31.1206 19.8513 31.7711 20.5018C32.4217 21.1523 32.7871 22.0346 32.7871 22.9546V26.4233H20.0684Z" fill="#3468C0"/>
</svg>
