<svg width="40" height="40" viewBox="0 0 40 40" fill="none" xmlns="http://www.w3.org/2000/svg">
<path d="M39.9983 20.0008C39.9983 8.95371 31.0446 0 19.9992 0C8.95371 0 0 8.95371 0 20.0008C0 29.9812 7.31364 38.2549 16.874 39.755V25.7811H11.7972V19.9992H16.874V15.594C16.874 10.5804 19.8608 7.81199 24.4277 7.81199C26.6161 7.81199 28.9045 8.20201 28.9045 8.20201V13.1239H26.3844C23.901 13.1239 23.126 14.6656 23.126 16.2473V20.0008H28.6729L27.7862 25.7827H23.126V39.7567C32.6864 38.2566 40 29.9829 40 20.0008H39.9983Z" fill="#3468C0"/>
</svg>
