<svg width="23" height="22" viewBox="0 0 23 22" fill="none" xmlns="http://www.w3.org/2000/svg">
<path d="M11.0983 2.0625C9.3306 2.0625 7.60263 2.58668 6.13286 3.56874C4.6631 4.55081 3.51756 5.94665 2.8411 7.57977C2.16464 9.21288 1.98765 11.0099 2.3325 12.7436C2.67736 14.4773 3.52857 16.0698 4.7785 17.3198C6.02844 18.5697 7.62095 19.4209 9.35465 19.7658C11.0884 20.1106 12.8854 19.9336 14.5185 19.2572C16.1516 18.5807 17.5475 17.4352 18.5295 15.9654C19.5116 14.4956 20.0358 12.7677 20.0358 11C20.0333 8.63039 19.0908 6.35856 17.4153 4.683C15.7397 3.00743 13.4679 2.065 11.0983 2.0625ZM8.8321 14.4375H13.3644C12.903 16.0136 12.1295 17.4341 11.0983 18.553C10.067 17.4341 9.29358 16.0136 8.8321 14.4375ZM8.52014 13.0625C8.29213 11.697 8.29213 10.303 8.52014 8.9375H13.6764C13.9044 10.303 13.9044 11.697 13.6764 13.0625H8.52014ZM3.53577 11C3.53517 10.3026 3.63148 9.60843 3.82194 8.9375H7.1271C6.922 10.3049 6.922 11.6951 7.1271 13.0625H3.82194C3.63148 12.3916 3.53517 11.6974 3.53577 11ZM13.3644 7.5625H8.8321C9.29358 5.98641 10.067 4.56586 11.0983 3.44695C12.1295 4.56586 12.903 5.98641 13.3644 7.5625ZM15.0694 8.9375H18.3746C18.7562 10.286 18.7562 11.714 18.3746 13.0625H15.0694C15.2745 11.6951 15.2745 10.3049 15.0694 8.9375ZM17.8332 7.5625H14.7884C14.4376 6.18192 13.8484 4.87321 13.0473 3.69531C14.0707 3.97033 15.0252 4.45648 15.8495 5.1225C16.6737 5.78852 17.3494 6.61967 17.8332 7.5625ZM9.14921 3.69531C8.34818 4.87321 7.75897 6.18192 7.40811 7.5625H4.36335C4.84711 6.61967 5.52284 5.78852 6.34708 5.1225C7.17132 4.45648 8.12582 3.97033 9.14921 3.69531ZM4.36335 14.4375H7.40811C7.75897 15.8181 8.34818 17.1268 9.14921 18.3047C8.12582 18.0297 7.17132 17.5435 6.34708 16.8775C5.52284 16.2115 4.84711 15.3803 4.36335 14.4375ZM13.0473 18.3047C13.8484 17.1268 14.4376 15.8181 14.7884 14.4375H17.8332C17.3494 15.3803 16.6737 16.2115 15.8495 16.8775C15.0252 17.5435 14.0707 18.0297 13.0473 18.3047Z" fill="#3C3C3C"/>
</svg>
